<svg xmlns="http://www.w3.org/2000/svg" viewBox="0 0 100 100" width="100" height="100">
  <defs>
    <linearGradient id="shieldGrad" x1="0%" y1="0%" x2="100%" y2="100%">
      <stop offset="0%" style="stop-color:#4f46e5;stop-opacity:1" />
      <stop offset="100%" style="stop-color:#6366f1;stop-opacity:1" />
    </linearGradient>
  </defs>
  <!-- Modern Shield Outer Shape -->
  <path d="M50 90 C22 75 18 45 18 30 L50 12 L82 30 C82 45 78 75 50 90 Z" fill="url(#shieldGrad)" />
  <!-- Academic Cap diamond top inside -->
  <path d="M50 26 L65 33 L50 40 L35 33 Z" fill="white" fill-opacity="0.9" />
  <!-- Academic Cap cap band & tassel -->
  <path d="M42 37.5 L42 45 C42 48 58 48 58 45 L58 37.5" fill="none" stroke="white" stroke-width="2.5" stroke-linecap="round" />
  <path d="M50 33 L50 44 L46 45" fill="none" stroke="white" stroke-width="1.5" stroke-linecap="round" />
  <!-- Styled Scanning/Eye Ring -->
  <path d="M32 58 Q50 40 68 58 Q50 76 32 58 Z" fill="none" stroke="white" stroke-width="3" stroke-linecap="round" />
  <!-- Center Pupil (AI Core) -->
  <circle cx="50" cy="58" r="5" fill="white" />
</svg>
